<svg width="30" height="30" viewBox="0 0 30 30" fill="none" xmlns="http://www.w3.org/2000/svg">
<circle cx="15" cy="15" r="15" fill="white"/>
<path d="M12.0568 18V9.27273H15.0057C15.6875 9.27273 16.2472 9.3892 16.6847 9.62216C17.1222 9.85227 17.446 10.169 17.6562 10.5724C17.8665 10.9759 17.9716 11.4347 17.9716 11.9489C17.9716 12.4631 17.8665 12.919 17.6562 13.3168C17.446 13.7145 17.1236 14.027 16.6889 14.2543C16.2543 14.4787 15.6989 14.5909 15.0227 14.5909H12.6364V13.6364H14.9886C15.4545 13.6364 15.8295 13.5682 16.1136 13.4318C16.4006 13.2955 16.608 13.1023 16.7358 12.8523C16.8665 12.5994 16.9318 12.2983 16.9318 11.9489C16.9318 11.5994 16.8665 11.294 16.7358 11.0327C16.6051 10.7713 16.3963 10.5696 16.1094 10.4276C15.8224 10.2827 15.4432 10.2102 14.9716 10.2102H13.1136V18H12.0568ZM16.1648 14.0795L18.3125 18H17.0852L14.9716 14.0795H16.1648Z" fill="black"/>
<line x1="10.9019" y1="20.4706" x2="20.7077" y2="18.5095" stroke="black"/>
</svg>
